<svg width="100" height="100" viewBox="0 0 100 100" fill="none" xmlns="http://www.w3.org/2000/svg">
<path d="M2.5 5C3.88071 5 5 3.88071 5 2.5C5 1.11929 3.88071 0 2.5 0C1.11929 0 0 1.11929 0 2.5C0 3.88071 1.11929 5 2.5 5Z" fill="#DFDFDF"/>
<path d="M21.6108 5C22.9915 5 24.1108 3.88071 24.1108 2.5C24.1108 1.11929 22.9915 0 21.6108 0C20.2301 0 19.1108 1.11929 19.1108 2.5C19.1108 3.88071 20.2301 5 21.6108 5Z" fill="#DFDFDF"/>
<path d="M40.7215 5C42.1022 5 43.2215 3.88071 43.2215 2.5C43.2215 1.11929 42.1022 0 40.7215 0C39.3408 0 38.2215 1.11929 38.2215 2.5C38.2215 3.88071 39.3408 5 40.7215 5Z" fill="#DFDFDF"/>
<path d="M58.7706 5C60.1513 5 61.2706 3.88071 61.2706 2.5C61.2706 1.11929 60.1513 0 58.7706 0C57.3899 0 56.2706 1.11929 56.2706 2.5C56.2706 3.88071 57.3899 5 58.7706 5Z" fill="white"/>
<path d="M77.8813 5C79.262 5 80.3813 3.88071 80.3813 2.5C80.3813 1.11929 79.262 0 77.8813 0C76.5006 0 75.3813 1.11929 75.3813 2.5C75.3813 3.88071 76.5006 5 77.8813 5Z" fill="white"/>
<path d="M96.9921 5C98.3728 5 99.4921 3.88071 99.4921 2.5C99.4921 1.11929 98.3728 0 96.9921 0C95.6114 0 94.4921 1.11929 94.4921 2.5C94.4921 3.88071 95.6114 5 96.9921 5Z" fill="white"/>
<path d="M2.5 24.1108C3.88071 24.1108 5 22.9916 5 21.6108C5 20.2301 3.88071 19.1108 2.5 19.1108C1.11929 19.1108 0 20.2301 0 21.6108C0 22.9916 1.11929 24.1108 2.5 24.1108Z" fill="#DFDFDF"/>
<path d="M21.6108 24.1108C22.9915 24.1108 24.1108 22.9916 24.1108 21.6108C24.1108 20.2301 22.9915 19.1108 21.6108 19.1108C20.2301 19.1108 19.1108 20.2301 19.1108 21.6108C19.1108 22.9916 20.2301 24.1108 21.6108 24.1108Z" fill="#DFDFDF"/>
<path d="M40.7215 24.1108C42.1022 24.1108 43.2215 22.9916 43.2215 21.6108C43.2215 20.2301 42.1022 19.1108 40.7215 19.1108C39.3408 19.1108 38.2215 20.2301 38.2215 21.6108C38.2215 22.9916 39.3408 24.1108 40.7215 24.1108Z" fill="#DFDFDF"/>
<path d="M58.7706 24.1108C60.1513 24.1108 61.2706 22.9916 61.2706 21.6108C61.2706 20.2301 60.1513 19.1108 58.7706 19.1108C57.3899 19.1108 56.2706 20.2301 56.2706 21.6108C56.2706 22.9916 57.3899 24.1108 58.7706 24.1108Z" fill="white"/>
<path d="M77.8813 24.1108C79.262 24.1108 80.3813 22.9916 80.3813 21.6108C80.3813 20.2301 79.262 19.1108 77.8813 19.1108C76.5006 19.1108 75.3813 20.2301 75.3813 21.6108C75.3813 22.9916 76.5006 24.1108 77.8813 24.1108Z" fill="white"/>
<path d="M96.9921 24.1108C98.3728 24.1108 99.4921 22.9916 99.4921 21.6108C99.4921 20.2301 98.3728 19.1108 96.9921 19.1108C95.6114 19.1108 94.4921 20.2301 94.4921 21.6108C94.4921 22.9916 95.6114 24.1108 96.9921 24.1108Z" fill="white"/>
<path d="M2.5 42.1597C3.88071 42.1597 5 41.0404 5 39.6597C5 38.279 3.88071 37.1597 2.5 37.1597C1.11929 37.1597 0 38.279 0 39.6597C0 41.0404 1.11929 42.1597 2.5 42.1597Z" fill="#DFDFDF"/>
<path d="M2.5 99.4922C3.88071 99.4922 5 98.3729 5 96.9922C5 95.6115 3.88071 94.4922 2.5 94.4922C1.11929 94.4922 0 95.6115 0 96.9922C0 98.3729 1.11929 99.4922 2.5 99.4922Z" fill="#DFDFDF"/>
<path d="M21.6108 42.1597C22.9915 42.1597 24.1108 41.0404 24.1108 39.6597C24.1108 38.279 22.9915 37.1597 21.6108 37.1597C20.2301 37.1597 19.1108 38.279 19.1108 39.6597C19.1108 41.0404 20.2301 42.1597 21.6108 42.1597Z" fill="#DFDFDF"/>
<path d="M21.6108 99.4922C22.9915 99.4922 24.1108 98.3729 24.1108 96.9922C24.1108 95.6115 22.9915 94.4922 21.6108 94.4922C20.2301 94.4922 19.1108 95.6115 19.1108 96.9922C19.1108 98.3729 20.2301 99.4922 21.6108 99.4922Z" fill="#DFDFDF"/>
<path d="M40.7215 42.1597C42.1022 42.1597 43.2215 41.0404 43.2215 39.6597C43.2215 38.279 42.1022 37.1597 40.7215 37.1597C39.3408 37.1597 38.2215 38.279 38.2215 39.6597C38.2215 41.0404 39.3408 42.1597 40.7215 42.1597Z" fill="#DFDFDF"/>
<path d="M40.7215 99.4922C42.1022 99.4922 43.2215 98.3729 43.2215 96.9922C43.2215 95.6115 42.1022 94.4922 40.7215 94.4922C39.3408 94.4922 38.2215 95.6115 38.2215 96.9922C38.2215 98.3729 39.3408 99.4922 40.7215 99.4922Z" fill="#DFDFDF"/>
<path d="M58.7706 42.1597C60.1513 42.1597 61.2706 41.0404 61.2706 39.6597C61.2706 38.279 60.1513 37.1597 58.7706 37.1597C57.3899 37.1597 56.2706 38.279 56.2706 39.6597C56.2706 41.0404 57.3899 42.1597 58.7706 42.1597Z" fill="white"/>
<path d="M58.7706 99.4922C60.1513 99.4922 61.2706 98.3729 61.2706 96.9922C61.2706 95.6115 60.1513 94.4922 58.7706 94.4922C57.3899 94.4922 56.2706 95.6115 56.2706 96.9922C56.2706 98.3729 57.3899 99.4922 58.7706 99.4922Z" fill="white"/>
<path d="M77.8813 42.1597C79.262 42.1597 80.3813 41.0404 80.3813 39.6597C80.3813 38.279 79.262 37.1597 77.8813 37.1597C76.5006 37.1597 75.3813 38.279 75.3813 39.6597C75.3813 41.0404 76.5006 42.1597 77.8813 42.1597Z" fill="white"/>
<path d="M77.8813 99.4922C79.262 99.4922 80.3813 98.3729 80.3813 96.9922C80.3813 95.6115 79.262 94.4922 77.8813 94.4922C76.5006 94.4922 75.3813 95.6115 75.3813 96.9922C75.3813 98.3729 76.5006 99.4922 77.8813 99.4922Z" fill="white"/>
<path d="M96.9921 42.1597C98.3728 42.1597 99.4921 41.0404 99.4921 39.6597C99.4921 38.279 98.3728 37.1597 96.9921 37.1597C95.6114 37.1597 94.4921 38.279 94.4921 39.6597C94.4921 41.0404 95.6114 42.1597 96.9921 42.1597Z" fill="white"/>
<path d="M96.9921 99.4922C98.3728 99.4922 99.4921 98.3729 99.4921 96.9922C99.4921 95.6115 98.3728 94.4922 96.9921 94.4922C95.6114 94.4922 94.4921 95.6115 94.4921 96.9922C94.4921 98.3729 95.6114 99.4922 96.9921 99.4922Z" fill="white"/>
<path d="M2.5 61.2705C3.88071 61.2705 5 60.1512 5 58.7705C5 57.3898 3.88071 56.2705 2.5 56.2705C1.11929 56.2705 0 57.3898 0 58.7705C0 60.1512 1.11929 61.2705 2.5 61.2705Z" fill="#DFDFDF"/>
<path d="M21.6108 61.2705C22.9915 61.2705 24.1108 60.1512 24.1108 58.7705C24.1108 57.3898 22.9915 56.2705 21.6108 56.2705C20.2301 56.2705 19.1108 57.3898 19.1108 58.7705C19.1108 60.1512 20.2301 61.2705 21.6108 61.2705Z" fill="#DFDFDF"/>
<path d="M40.7215 61.2705C42.1022 61.2705 43.2215 60.1512 43.2215 58.7705C43.2215 57.3898 42.1022 56.2705 40.7215 56.2705C39.3408 56.2705 38.2215 57.3898 38.2215 58.7705C38.2215 60.1512 39.3408 61.2705 40.7215 61.2705Z" fill="#DFDFDF"/>
<path d="M58.7706 61.2705C60.1513 61.2705 61.2706 60.1512 61.2706 58.7705C61.2706 57.3898 60.1513 56.2705 58.7706 56.2705C57.3899 56.2705 56.2706 57.3898 56.2706 58.7705C56.2706 60.1512 57.3899 61.2705 58.7706 61.2705Z" fill="white"/>
<path d="M77.8813 61.2705C79.262 61.2705 80.3813 60.1512 80.3813 58.7705C80.3813 57.3898 79.262 56.2705 77.8813 56.2705C76.5006 56.2705 75.3813 57.3898 75.3813 58.7705C75.3813 60.1512 76.5006 61.2705 77.8813 61.2705Z" fill="white"/>
<path d="M96.9921 61.2705C98.3728 61.2705 99.4921 60.1512 99.4921 58.7705C99.4921 57.3898 98.3728 56.2705 96.9921 56.2705C95.6114 56.2705 94.4921 57.3898 94.4921 58.7705C94.4921 60.1512 95.6114 61.2705 96.9921 61.2705Z" fill="white"/>
<path d="M2.5 80.3813C3.88071 80.3813 5 79.2621 5 77.8813C5 76.5006 3.88071 75.3813 2.5 75.3813C1.11929 75.3813 0 76.5006 0 77.8813C0 79.2621 1.11929 80.3813 2.5 80.3813Z" fill="#DFDFDF"/>
<path d="M21.6108 80.3813C22.9915 80.3813 24.1108 79.2621 24.1108 77.8813C24.1108 76.5006 22.9915 75.3813 21.6108 75.3813C20.2301 75.3813 19.1108 76.5006 19.1108 77.8813C19.1108 79.2621 20.2301 80.3813 21.6108 80.3813Z" fill="#DFDFDF"/>
<path d="M40.7215 80.3813C42.1022 80.3813 43.2215 79.2621 43.2215 77.8813C43.2215 76.5006 42.1022 75.3813 40.7215 75.3813C39.3408 75.3813 38.2215 76.5006 38.2215 77.8813C38.2215 79.2621 39.3408 80.3813 40.7215 80.3813Z" fill="#DFDFDF"/>
<path d="M58.7706 80.3813C60.1513 80.3813 61.2706 79.2621 61.2706 77.8813C61.2706 76.5006 60.1513 75.3813 58.7706 75.3813C57.3899 75.3813 56.2706 76.5006 56.2706 77.8813C56.2706 79.2621 57.3899 80.3813 58.7706 80.3813Z" fill="white"/>
<path d="M77.8813 80.3813C79.262 80.3813 80.3813 79.2621 80.3813 77.8813C80.3813 76.5006 79.262 75.3813 77.8813 75.3813C76.5006 75.3813 75.3813 76.5006 75.3813 77.8813C75.3813 79.2621 76.5006 80.3813 77.8813 80.3813Z" fill="white"/>
<path d="M96.9921 80.3813C98.3728 80.3813 99.4921 79.2621 99.4921 77.8813C99.4921 76.5006 98.3728 75.3813 96.9921 75.3813C95.6114 75.3813 94.4921 76.5006 94.4921 77.8813C94.4921 79.2621 95.6114 80.3813 96.9921 80.3813Z" fill="white"/>
</svg>
