<svg width="175" height="76" viewBox="0 0 175 76" fill="none" xmlns="http://www.w3.org/2000/svg">
<g opacity="0.15">
<path d="M116.103 24.1108C117.484 24.1108 118.603 22.9915 118.603 21.6108C118.603 20.2301 117.484 19.1108 116.103 19.1108C114.722 19.1108 113.603 20.2301 113.603 21.6108C113.603 22.9915 114.722 24.1108 116.103 24.1108Z" fill="#272727"/>
<path d="M135.213 24.1108C136.594 24.1108 137.713 22.9915 137.713 21.6108C137.713 20.2301 136.594 19.1108 135.213 19.1108C133.833 19.1108 132.713 20.2301 132.713 21.6108C132.713 22.9915 133.833 24.1108 135.213 24.1108Z" fill="#272727"/>
<path d="M153.263 24.1108C154.643 24.1108 155.763 22.9915 155.763 21.6108C155.763 20.2301 154.643 19.1108 153.263 19.1108C151.882 19.1108 150.763 20.2301 150.763 21.6108C150.763 22.9915 151.882 24.1108 153.263 24.1108Z" fill="#272727"/>
<path d="M2.5 24.1108C3.88071 24.1108 5 22.9915 5 21.6108C5 20.2301 3.88071 19.1108 2.5 19.1108C1.11929 19.1108 0 20.2301 0 21.6108C0 22.9915 1.11929 24.1108 2.5 24.1108Z" fill="#272727"/>
<path d="M172.374 24.1108C173.754 24.1108 174.874 22.9915 174.874 21.6108C174.874 20.2301 173.754 19.1108 172.374 19.1108C170.993 19.1108 169.874 20.2301 169.874 21.6108C169.874 22.9915 170.993 24.1108 172.374 24.1108Z" fill="#272727"/>
<path d="M21.6108 24.1108C22.9916 24.1108 24.1108 22.9915 24.1108 21.6108C24.1108 20.2301 22.9916 19.1108 21.6108 19.1108C20.2301 19.1108 19.1108 20.2301 19.1108 21.6108C19.1108 22.9915 20.2301 24.1108 21.6108 24.1108Z" fill="#272727"/>
<path d="M40.7217 24.1108C42.1024 24.1108 43.2217 22.9915 43.2217 21.6108C43.2217 20.2301 42.1024 19.1108 40.7217 19.1108C39.341 19.1108 38.2217 20.2301 38.2217 21.6108C38.2217 22.9915 39.341 24.1108 40.7217 24.1108Z" fill="#272727"/>
<path d="M58.7705 24.1108C60.1512 24.1108 61.2705 22.9915 61.2705 21.6108C61.2705 20.2301 60.1512 19.1108 58.7705 19.1108C57.3898 19.1108 56.2705 20.2301 56.2705 21.6108C56.2705 22.9915 57.3898 24.1108 58.7705 24.1108Z" fill="#272727"/>
<path d="M77.8813 24.1108C79.2621 24.1108 80.3813 22.9915 80.3813 21.6108C80.3813 20.2301 79.2621 19.1108 77.8813 19.1108C76.5006 19.1108 75.3813 20.2301 75.3813 21.6108C75.3813 22.9915 76.5006 24.1108 77.8813 24.1108Z" fill="#272727"/>
<path d="M96.9922 24.1108C98.3729 24.1108 99.4922 22.9915 99.4922 21.6108C99.4922 20.2301 98.3729 19.1108 96.9922 19.1108C95.6115 19.1108 94.4922 20.2301 94.4922 21.6108C94.4922 22.9915 95.6115 24.1108 96.9922 24.1108Z" fill="#272727"/>
<path d="M116.103 43.2215C117.484 43.2215 118.603 42.1022 118.603 40.7215C118.603 39.3408 117.484 38.2215 116.103 38.2215C114.722 38.2215 113.603 39.3408 113.603 40.7215C113.603 42.1022 114.722 43.2215 116.103 43.2215Z" fill="#272727"/>
<path d="M135.213 43.2215C136.594 43.2215 137.713 42.1022 137.713 40.7215C137.713 39.3408 136.594 38.2215 135.213 38.2215C133.833 38.2215 132.713 39.3408 132.713 40.7215C132.713 42.1022 133.833 43.2215 135.213 43.2215Z" fill="#272727"/>
<path d="M153.263 43.2215C154.643 43.2215 155.763 42.1022 155.763 40.7215C155.763 39.3408 154.643 38.2215 153.263 38.2215C151.882 38.2215 150.763 39.3408 150.763 40.7215C150.763 42.1022 151.882 43.2215 153.263 43.2215Z" fill="#272727"/>
<path d="M2.5 43.2215C3.88071 43.2215 5 42.1022 5 40.7215C5 39.3408 3.88071 38.2215 2.5 38.2215C1.11929 38.2215 0 39.3408 0 40.7215C0 42.1022 1.11929 43.2215 2.5 43.2215Z" fill="#272727"/>
<path d="M172.374 43.2215C173.754 43.2215 174.874 42.1022 174.874 40.7215C174.874 39.3408 173.754 38.2215 172.374 38.2215C170.993 38.2215 169.874 39.3408 169.874 40.7215C169.874 42.1022 170.993 43.2215 172.374 43.2215Z" fill="#272727"/>
<path d="M21.6108 43.2215C22.9916 43.2215 24.1108 42.1022 24.1108 40.7215C24.1108 39.3408 22.9916 38.2215 21.6108 38.2215C20.2301 38.2215 19.1108 39.3408 19.1108 40.7215C19.1108 42.1022 20.2301 43.2215 21.6108 43.2215Z" fill="#272727"/>
<path d="M40.7217 43.2215C42.1024 43.2215 43.2217 42.1022 43.2217 40.7215C43.2217 39.3408 42.1024 38.2215 40.7217 38.2215C39.341 38.2215 38.2217 39.3408 38.2217 40.7215C38.2217 42.1022 39.341 43.2215 40.7217 43.2215Z" fill="#272727"/>
<path d="M58.7705 43.2215C60.1512 43.2215 61.2705 42.1022 61.2705 40.7215C61.2705 39.3408 60.1512 38.2215 58.7705 38.2215C57.3898 38.2215 56.2705 39.3408 56.2705 40.7215C56.2705 42.1022 57.3898 43.2215 58.7705 43.2215Z" fill="#272727"/>
<path d="M77.8813 43.2215C79.2621 43.2215 80.3813 42.1022 80.3813 40.7215C80.3813 39.3408 79.2621 38.2215 77.8813 38.2215C76.5006 38.2215 75.3813 39.3408 75.3813 40.7215C75.3813 42.1022 76.5006 43.2215 77.8813 43.2215Z" fill="#272727"/>
<path d="M96.9922 43.2215C98.3729 43.2215 99.4922 42.1022 99.4922 40.7215C99.4922 39.3408 98.3729 38.2215 96.9922 38.2215C95.6115 38.2215 94.4922 39.3408 94.4922 40.7215C94.4922 42.1022 95.6115 43.2215 96.9922 43.2215Z" fill="#272727"/>
<path d="M116.103 61.2705C117.484 61.2705 118.603 60.1512 118.603 58.7705C118.603 57.3898 117.484 56.2705 116.103 56.2705C114.722 56.2705 113.603 57.3898 113.603 58.7705C113.603 60.1512 114.722 61.2705 116.103 61.2705Z" fill="#272727"/>
<path d="M135.213 61.2705C136.594 61.2705 137.713 60.1512 137.713 58.7705C137.713 57.3898 136.594 56.2705 135.213 56.2705C133.833 56.2705 132.713 57.3898 132.713 58.7705C132.713 60.1512 133.833 61.2705 135.213 61.2705Z" fill="#272727"/>
<path d="M153.263 61.2705C154.643 61.2705 155.763 60.1512 155.763 58.7705C155.763 57.3898 154.643 56.2705 153.263 56.2705C151.882 56.2705 150.763 57.3898 150.763 58.7705C150.763 60.1512 151.882 61.2705 153.263 61.2705Z" fill="#272727"/>
<path d="M2.5 61.2705C3.88071 61.2705 5 60.1512 5 58.7705C5 57.3898 3.88071 56.2705 2.5 56.2705C1.11929 56.2705 0 57.3898 0 58.7705C0 60.1512 1.11929 61.2705 2.5 61.2705Z" fill="#272727"/>
<path d="M172.374 61.2705C173.754 61.2705 174.874 60.1512 174.874 58.7705C174.874 57.3898 173.754 56.2705 172.374 56.2705C170.993 56.2705 169.874 57.3898 169.874 58.7705C169.874 60.1512 170.993 61.2705 172.374 61.2705Z" fill="#272727"/>
<path d="M21.6108 61.2705C22.9916 61.2705 24.1108 60.1512 24.1108 58.7705C24.1108 57.3898 22.9916 56.2705 21.6108 56.2705C20.2301 56.2705 19.1108 57.3898 19.1108 58.7705C19.1108 60.1512 20.2301 61.2705 21.6108 61.2705Z" fill="#272727"/>
<path d="M40.7217 61.2705C42.1024 61.2705 43.2217 60.1512 43.2217 58.7705C43.2217 57.3898 42.1024 56.2705 40.7217 56.2705C39.341 56.2705 38.2217 57.3898 38.2217 58.7705C38.2217 60.1512 39.341 61.2705 40.7217 61.2705Z" fill="#272727"/>
<path d="M58.7705 61.2705C60.1512 61.2705 61.2705 60.1512 61.2705 58.7705C61.2705 57.3898 60.1512 56.2705 58.7705 56.2705C57.3898 56.2705 56.2705 57.3898 56.2705 58.7705C56.2705 60.1512 57.3898 61.2705 58.7705 61.2705Z" fill="#272727"/>
<path d="M77.8813 61.2705C79.2621 61.2705 80.3813 60.1512 80.3813 58.7705C80.3813 57.3898 79.2621 56.2705 77.8813 56.2705C76.5006 56.2705 75.3813 57.3898 75.3813 58.7705C75.3813 60.1512 76.5006 61.2705 77.8813 61.2705Z" fill="#272727"/>
<path d="M96.9922 61.2705C98.3729 61.2705 99.4922 60.1512 99.4922 58.7705C99.4922 57.3898 98.3729 56.2705 96.9922 56.2705C95.6115 56.2705 94.4922 57.3898 94.4922 58.7705C94.4922 60.1512 95.6115 61.2705 96.9922 61.2705Z" fill="#272727"/>
<path d="M116.103 80.3813C117.484 80.3813 118.603 79.262 118.603 77.8813C118.603 76.5006 117.484 75.3813 116.103 75.3813C114.722 75.3813 113.603 76.5006 113.603 77.8813C113.603 79.262 114.722 80.3813 116.103 80.3813Z" fill="#272727"/>
<path d="M135.213 80.3813C136.594 80.3813 137.713 79.262 137.713 77.8813C137.713 76.5006 136.594 75.3813 135.213 75.3813C133.833 75.3813 132.713 76.5006 132.713 77.8813C132.713 79.262 133.833 80.3813 135.213 80.3813Z" fill="#272727"/>
<path d="M153.263 80.3813C154.643 80.3813 155.763 79.262 155.763 77.8813C155.763 76.5006 154.643 75.3813 153.263 75.3813C151.882 75.3813 150.763 76.5006 150.763 77.8813C150.763 79.262 151.882 80.3813 153.263 80.3813Z" fill="#272727"/>
<path d="M2.5 80.3813C3.88071 80.3813 5 79.262 5 77.8813C5 76.5006 3.88071 75.3813 2.5 75.3813C1.11929 75.3813 0 76.5006 0 77.8813C0 79.262 1.11929 80.3813 2.5 80.3813Z" fill="#272727"/>
<path d="M172.374 80.3813C173.754 80.3813 174.874 79.262 174.874 77.8813C174.874 76.5006 173.754 75.3813 172.374 75.3813C170.993 75.3813 169.874 76.5006 169.874 77.8813C169.874 79.262 170.993 80.3813 172.374 80.3813Z" fill="#272727"/>
<path d="M21.6108 80.3813C22.9916 80.3813 24.1108 79.262 24.1108 77.8813C24.1108 76.5006 22.9916 75.3813 21.6108 75.3813C20.2301 75.3813 19.1108 76.5006 19.1108 77.8813C19.1108 79.262 20.2301 80.3813 21.6108 80.3813Z" fill="#272727"/>
<path d="M40.7217 80.3813C42.1024 80.3813 43.2217 79.262 43.2217 77.8813C43.2217 76.5006 42.1024 75.3813 40.7217 75.3813C39.341 75.3813 38.2217 76.5006 38.2217 77.8813C38.2217 79.262 39.341 80.3813 40.7217 80.3813Z" fill="#272727"/>
<path d="M58.7705 80.3813C60.1512 80.3813 61.2705 79.262 61.2705 77.8813C61.2705 76.5006 60.1512 75.3813 58.7705 75.3813C57.3898 75.3813 56.2705 76.5006 56.2705 77.8813C56.2705 79.262 57.3898 80.3813 58.7705 80.3813Z" fill="#272727"/>
<path d="M77.8813 80.3813C79.2621 80.3813 80.3813 79.262 80.3813 77.8813C80.3813 76.5006 79.2621 75.3813 77.8813 75.3813C76.5006 75.3813 75.3813 76.5006 75.3813 77.8813C75.3813 79.262 76.5006 80.3813 77.8813 80.3813Z" fill="#272727"/>
<path d="M96.9922 80.3813C98.3729 80.3813 99.4922 79.262 99.4922 77.8813C99.4922 76.5006 98.3729 75.3813 96.9922 75.3813C95.6115 75.3813 94.4922 76.5006 94.4922 77.8813C94.4922 79.262 95.6115 80.3813 96.9922 80.3813Z" fill="#272727"/>
<path d="M116.103 5C117.484 5 118.603 3.88071 118.603 2.5C118.603 1.11929 117.484 0 116.103 0C114.722 0 113.603 1.11929 113.603 2.5C113.603 3.88071 114.722 5 116.103 5Z" fill="#272727"/>
<path d="M135.213 5C136.594 5 137.713 3.88071 137.713 2.5C137.713 1.11929 136.594 0 135.213 0C133.833 0 132.713 1.11929 132.713 2.5C132.713 3.88071 133.833 5 135.213 5Z" fill="#272727"/>
<path d="M2.5 5C3.88071 5 5 3.88071 5 2.5C5 1.11929 3.88071 0 2.5 0C1.11929 0 0 1.11929 0 2.5C0 3.88071 1.11929 5 2.5 5Z" fill="#272727"/>
<path d="M153.263 5C154.643 5 155.763 3.88071 155.763 2.5C155.763 1.11929 154.643 0 153.263 0C151.882 0 150.763 1.11929 150.763 2.5C150.763 3.88071 151.882 5 153.263 5Z" fill="#272727"/>
<path d="M21.6108 5C22.9916 5 24.1108 3.88071 24.1108 2.5C24.1108 1.11929 22.9916 0 21.6108 0C20.2301 0 19.1108 1.11929 19.1108 2.5C19.1108 3.88071 20.2301 5 21.6108 5Z" fill="#272727"/>
<path d="M172.374 5C173.754 5 174.874 3.88071 174.874 2.5C174.874 1.11929 173.754 0 172.374 0C170.993 0 169.874 1.11929 169.874 2.5C169.874 3.88071 170.993 5 172.374 5Z" fill="#272727"/>
<path d="M40.7217 5C42.1024 5 43.2217 3.88071 43.2217 2.5C43.2217 1.11929 42.1024 0 40.7217 0C39.341 0 38.2217 1.11929 38.2217 2.5C38.2217 3.88071 39.341 5 40.7217 5Z" fill="#272727"/>
<path d="M58.7705 5C60.1512 5 61.2705 3.88071 61.2705 2.5C61.2705 1.11929 60.1512 0 58.7705 0C57.3898 0 56.2705 1.11929 56.2705 2.5C56.2705 3.88071 57.3898 5 58.7705 5Z" fill="#272727"/>
<path d="M77.8813 5C79.2621 5 80.3813 3.88071 80.3813 2.5C80.3813 1.11929 79.2621 0 77.8813 0C76.5006 0 75.3813 1.11929 75.3813 2.5C75.3813 3.88071 76.5006 5 77.8813 5Z" fill="#272727"/>
<path d="M96.9922 5C98.3729 5 99.4922 3.88071 99.4922 2.5C99.4922 1.11929 98.3729 0 96.9922 0C95.6115 0 94.4922 1.11929 94.4922 2.5C94.4922 3.88071 95.6115 5 96.9922 5Z" fill="#272727"/>
</g>
</svg>
