<svg width="132" height="26" viewBox="0 0 132 26" fill="none" xmlns="http://www.w3.org/2000/svg">
<path d="M25.683 26V0L12.8575 13L0 0V6.045L12.8575 19.1425L21.4506 10.465V26H25.683Z" fill="black"/>
<path d="M64.6107 18.7132L66.1148 15.3506H72.4873L73.9915 18.7132H74.7678L69.6569 7.2215H68.9614L63.8182 18.7132H64.6107ZM72.2123 14.6976H66.3736L69.3011 8.20091L72.2123 14.6976ZM81.3829 18.9091C83.1728 18.9091 84.6122 18.3106 85.7013 17.1135V12.1675H84.9573V16.836C84.0947 17.7392 82.9032 18.1909 81.3829 18.1909C80.0027 18.1909 78.8382 17.7012 77.8893 16.7218C76.9405 15.7532 76.466 14.5181 76.466 13.0163C76.466 11.5037 76.9405 10.2631 77.8893 9.29458C78.8382 8.30429 80.0189 7.80914 81.4314 7.80914C82.79 7.80914 84.003 8.23355 85.0705 9.08237V8.28252C84.0785 7.48812 82.8493 7.09091 81.3829 7.09091C79.7655 7.09091 78.4177 7.65135 77.3394 8.77223C76.2504 9.90399 75.7059 11.3132 75.7059 13C75.7059 14.6976 76.2504 16.1123 77.3394 17.2441C78.4177 18.3541 79.7655 18.9091 81.3829 18.9091ZM96.667 18.7132V18.0113H89.5829V12.9184H95.2276V12.2165H89.5829V7.9887H96.4083V7.28679H88.839V18.7132H96.667ZM99.8856 18.7132V8.57635L107.617 18.7132H108.264V7.28679H107.52V17.4073L99.8048 7.28679H99.1416V18.7132H99.8856ZM116.884 18.9091C118.275 18.9091 119.44 18.55 120.378 17.8317V16.9993C119.418 17.7937 118.264 18.1909 116.917 18.1909C115.504 18.1909 114.323 17.7012 113.375 16.7218C112.426 15.7315 111.951 14.4909 111.951 13C111.951 11.4982 112.426 10.2631 113.375 9.29458C114.323 8.30429 115.499 7.80914 116.9 7.80914C118.065 7.80914 119.138 8.14105 120.119 8.80487V7.9887C119.202 7.39018 118.124 7.09091 116.884 7.09091C115.256 7.09091 113.903 7.65135 112.825 8.77223C111.736 9.89311 111.191 11.3024 111.191 13C111.191 14.6976 111.736 16.1123 112.825 17.2441C113.903 18.3541 115.256 18.9091 116.884 18.9091ZM126.766 18.7132V13.4081L131.182 7.28679H130.325L126.411 12.7062L122.513 7.28679H121.607L126.022 13.4244V18.7132H126.766Z" fill="#7F7F8A"/>
<path d="M27.4807 26L31.59 21.645V4.29L27.4807 0V26Z" fill="black"/>
<path d="M38.4154 26V17.355H46.9614C49.2979 17.355 51.3144 16.51 52.9787 14.82C54.6751 13.13 55.4753 11.05 55.4753 8.6775C55.4753 6.305 54.6431 4.2575 52.9787 2.535C51.3144 0.845 49.2979 0 46.9614 0H34.1584L38.4154 4.355H46.9614C48.1136 4.355 49.1059 4.7775 49.9381 5.6225C50.8022 6.4675 51.2183 7.5075 51.2183 8.6775C51.2183 9.88 50.7702 10.8875 49.9381 11.7325C49.1059 12.5775 48.1136 13 46.9614 13H34.1584V26H38.4154Z" fill="black"/>
</svg>
