<svg width="132" height="26" viewBox="0 0 132 26" fill="none" xmlns="http://www.w3.org/2000/svg">
<path d="M25.683 26V0L12.8575 13L0 0V6.045L12.8575 19.1425L21.4506 10.465V26H25.683Z" fill="white"/>
<path d="M64.6107 18.7132L66.1148 15.3505H72.4873L73.9915 18.7132H74.7678L69.6569 7.22147H68.9614L63.8182 18.7132H64.6107ZM72.2123 14.6976H66.3736L69.3011 8.20088L72.2123 14.6976ZM81.3829 18.9091C83.1728 18.9091 84.6122 18.3105 85.7013 17.1135V12.1675H84.9573V16.836C84.0947 17.7392 82.9032 18.1908 81.3829 18.1908C80.0027 18.1908 78.8382 17.7011 77.8893 16.7217C76.9405 15.7532 76.466 14.5181 76.466 13.0163C76.466 11.5037 76.9405 10.2631 77.8893 9.29455C78.8382 8.30426 80.0189 7.80911 81.4314 7.80911C82.79 7.80911 84.003 8.23352 85.0705 9.08234V8.28249C84.0785 7.48809 82.8493 7.09088 81.3829 7.09088C79.7655 7.09088 78.4177 7.65132 77.3394 8.7722C76.2504 9.90396 75.7059 11.3132 75.7059 13C75.7059 14.6976 76.2504 16.1123 77.3394 17.2441C78.4177 18.3541 79.7655 18.9091 81.3829 18.9091ZM96.667 18.7132V18.0113H89.5829V12.9184H95.2276V12.2164H89.5829V7.98867H96.4083V7.28676H88.839V18.7132H96.667ZM99.8856 18.7132V8.57632L107.617 18.7132H108.264V7.28676H107.52V17.4073L99.8048 7.28676H99.1416V18.7132H99.8856ZM116.884 18.9091C118.275 18.9091 119.44 18.5499 120.378 17.8317V16.9992C119.418 17.7936 118.264 18.1908 116.917 18.1908C115.504 18.1908 114.323 17.7011 113.375 16.7217C112.426 15.7314 111.951 14.4908 111.951 13C111.951 11.4982 112.426 10.2631 113.375 9.29455C114.323 8.30426 115.499 7.80911 116.9 7.80911C118.065 7.80911 119.138 8.14102 120.119 8.80484V7.98867C119.202 7.39014 118.124 7.09088 116.884 7.09088C115.256 7.09088 113.903 7.65132 112.825 8.7722C111.736 9.89307 111.191 11.3023 111.191 13C111.191 14.6976 111.736 16.1123 112.825 17.2441C113.903 18.3541 115.256 18.9091 116.884 18.9091ZM126.766 18.7132V13.4081L131.182 7.28676H130.325L126.411 12.7062L122.513 7.28676H121.607L126.022 13.4244V18.7132H126.766Z" fill="#7F7F8A"/>
<path d="M27.4807 26L31.59 21.645V4.29L27.4807 0V26Z" fill="white"/>
<path d="M38.4154 26V17.355H46.9614C49.2979 17.355 51.3144 16.51 52.9787 14.82C54.6751 13.13 55.4753 11.05 55.4753 8.6775C55.4753 6.305 54.6431 4.2575 52.9787 2.535C51.3144 0.845 49.2979 0 46.9614 0H34.1584L38.4154 4.355H46.9614C48.1136 4.355 49.1059 4.7775 49.9381 5.6225C50.8022 6.4675 51.2183 7.5075 51.2183 8.6775C51.2183 9.88 50.7702 10.8875 49.9381 11.7325C49.1059 12.5775 48.1136 13 46.9614 13H34.1584V26H38.4154Z" fill="white"/>
</svg>
